# Blender v2.80 (sub 75) OBJ File: 'Casa.blend'
# www.blender.org
mtllib CamaNino.mtl
o cama_nina_1_cama_nina_1_group544520940.001
v -5.468674 0.485369 -3.710555
v -5.484071 0.472160 -3.825746
v -5.488163 0.365487 -3.713951
v -4.578753 0.447892 -3.821039
v -4.593445 0.489250 -3.696677
v -4.565236 0.356075 -3.735965
v -5.472202 0.505478 -3.784993
v -5.477742 0.492347 -2.553484
v -5.487675 0.352799 -2.547184
v -4.575689 0.360871 -2.549619
v -4.582204 0.495232 -2.556320
v -5.455738 0.492693 -2.528833
v -5.449208 0.340803 -4.054886
v -5.463870 0.369137 -2.530478
v -4.606296 0.269932 -4.040800
v -4.610913 0.484085 -2.513937
v -4.623790 0.301012 -2.515192
v -4.595828 0.443380 -4.052019
v -5.443394 0.467445 -4.066247
v -5.029557 0.522154 -4.035440
v -5.040244 0.458759 -4.050945
v -5.063495 0.532595 -4.063083
v -5.483523 0.455302 -4.023723
v -5.460336 0.455769 -4.057188
v -5.066322 0.459314 -4.072382
v -5.036929 0.562738 -4.026661
v -5.061704 0.566536 -4.050961
v -5.095354 0.578443 -4.019834
v -5.031446 0.456385 -3.870631
v -5.457242 0.519002 -4.065920
v -5.454618 0.557682 -4.052013
v -5.450842 0.557767 -4.052003
v -5.053682 0.457995 -3.837812
v -5.486012 0.486417 -3.854981
v -5.481878 0.551801 -4.018519
v -5.490956 0.513724 -4.029121
v -5.478643 0.459519 -3.845821
v -5.450842 0.459518 -3.828712
v -5.449174 0.489961 -3.819168
v -5.477975 0.530791 -3.845107
v -5.411992 0.548454 -3.869325
v -5.062209 0.496095 -3.824086
v -5.027208 0.497700 -3.855985
v -5.409917 0.573742 -4.019536
v -5.058597 0.532069 -3.819562
v -5.092147 0.551936 -3.857407
v -5.252612 0.550460 -3.941975
v -5.095418 0.578974 -4.023088
v -5.451042 0.528923 -3.826792
v -5.012902 0.541711 -4.027184
v -4.987532 0.546225 -4.050736
v -4.984513 0.512382 -4.062887
v -4.979527 0.439229 -4.072287
v -4.586166 0.445758 -4.045551
v -4.563963 0.445776 -4.011422
v -4.962400 0.531770 -3.856411
v -4.955126 0.558889 -4.018604
v -5.020204 0.434735 -3.871655
v -5.018964 0.500980 -4.036279
v -5.006198 0.437932 -4.051626
v -4.598434 0.547461 -4.040385
v -4.590631 0.508919 -4.054208
v -4.998986 0.436807 -3.838193
v -4.568247 0.542183 -4.006021
v -4.567216 0.476385 -3.842600
v -4.557884 0.504387 -4.016450
v -4.574154 0.449276 -3.833729
v -4.602432 0.448504 -3.817444
v -4.576678 0.520504 -3.832852
v -4.604078 0.517885 -3.815341
v -4.605164 0.478862 -3.807873
v -4.638895 0.562287 -4.009020
v -4.642358 0.536546 -3.858951
v -4.991850 0.475067 -3.824126
v -5.025933 0.475878 -3.857033
v -5.018867 0.512897 -3.848389
v -4.954979 0.559432 -4.021854
v -4.640688 0.562271 -4.009093
v -4.996518 0.510922 -3.819617
v -4.799543 0.534698 -3.936239
v -5.503043 0.659600 -4.076880
v -5.484554 -0.002413 -4.134409
v -5.483599 -0.004970 -4.067432
v -4.546213 -0.004144 -4.099491
v -4.554606 0.644859 -4.074070
v -4.551796 -0.005468 -4.032704
v -5.440001 0.710373 -4.087701
v -5.505820 0.660669 -4.143847
v -5.306214 0.741695 -4.095882
v -5.305871 0.739766 -4.162832
v -4.772375 0.770155 -4.167928
v -5.437803 0.708518 -4.154628
v -4.637182 0.730776 -4.097950
v -4.551233 0.644090 -4.141015
v -4.629902 0.720901 -4.164266
v -4.782850 0.773477 -4.101804
v -5.242651 0.845146 -4.100032
v -4.849680 0.855271 -4.109560
v -5.243242 0.843632 -4.166982
v -4.847146 0.853323 -4.176543
v -5.490998 0.315423 -4.060896
v -4.552013 0.253040 -4.057169
v -5.492200 0.248404 -4.060264
v -4.567152 0.346639 -2.510065
v -5.498368 0.283436 -2.493396
v -4.563638 0.279827 -2.505908
v -5.494524 0.350333 -2.495281
v -4.550811 0.320060 -4.057802
v -5.487215 0.550078 -2.491448
v -5.498900 0.000719 -2.544539
v -5.502341 0.000498 -2.477594
v -4.550324 -0.000095 -2.532516
v -4.567412 0.540931 -2.490026
v -4.545389 -0.000514 -2.465667
v -5.485028 0.547153 -2.558382
v -4.565049 0.540558 -2.557016
v -4.575430 0.483069 -3.771420
v -5.035472 0.534546 -3.847674
v -5.411712 0.573712 -4.019516
v -4.594658 0.547472 -4.040285
vt 0.914456 0.530515
vt 0.918351 0.500929
vt 0.945464 0.529972
vt 0.854990 0.933189
vt 0.822901 0.943797
vt 0.833317 0.909366
vt 0.002439 0.478842
vt 0.031180 0.712560
vt 0.002439 0.711575
vt 0.778409 0.489773
vt 0.802128 0.715596
vt 0.782654 0.714778
vt 0.909349 0.827817
vt 0.945279 0.829841
vt 0.809446 0.485971
vt 0.811923 0.718671
vt 0.486317 0.717967
vt 0.528458 0.909208
vt 0.530001 0.943797
vt 0.329186 0.476420
vt 0.024289 0.475325
vt 0.911276 0.002535
vt 0.947026 0.234070
vt 0.911276 0.236908
vt 0.872121 0.895013
vt 0.904757 0.502278
vt 0.903935 0.894074
vt 0.864882 0.893358
vt 0.820354 0.499774
vt 0.867245 0.501224
vt 0.794775 0.482375
vt 0.404144 0.266420
vt 0.795928 0.265698
vt 0.004576 0.468963
vt 0.395917 0.251754
vt 0.397902 0.468963
vt 0.815193 0.002434
vt 0.849200 0.219188
vt 0.817378 0.219046
vt 0.906433 0.220291
vt 0.867125 0.002944
vt 0.899456 0.002469
vt 0.925580 0.961707
vt 0.909076 0.958822
vt 0.927856 0.952922
vt 0.343672 0.590399
vt 0.335236 0.584206
vt 0.334115 0.482874
vt 0.459303 0.670419
vt 0.452933 0.676717
vt 0.444315 0.668965
vt 0.789744 0.905590
vt 0.800559 0.861284
vt 0.806316 0.907197
vt 0.924979 0.851709
vt 0.935128 0.852482
vt 0.935144 0.853452
vt 0.386211 0.475342
vt 0.394488 0.481285
vt 0.980774 0.245025
vt 0.995814 0.287726
vt 0.985830 0.290043
vt 0.997246 0.296356
vt 0.389426 0.590399
vt 0.394019 0.583378
vt 0.114119 0.984172
vt 0.112237 0.990989
vt 0.104571 0.982912
vt 0.344941 0.668008
vt 0.345974 0.623143
vt 0.362950 0.629716
vt 0.005130 0.981881
vt 0.105056 0.990835
vt 0.003013 0.991829
vt 0.788475 0.850712
vt 0.798746 0.852876
vt 0.789568 0.859066
vt 0.363468 0.668720
vt 0.352914 0.676717
vt 0.453762 0.616722
vt 0.445157 0.626807
vt 0.403886 0.648417
vt 0.444299 0.669810
vt 0.779031 0.904779
vt 0.970974 0.288006
vt 0.105022 0.972987
vt 0.908906 0.952060
vt 0.805470 0.735541
vt 0.806102 0.742009
vt 0.797203 0.742571
vt 0.459610 0.507208
vt 0.458533 0.608533
vt 0.450099 0.614731
vt 0.424267 0.929052
vt 0.425053 0.971198
vt 0.410133 0.972667
vt 0.861650 0.227651
vt 0.817380 0.238612
vt 0.815740 0.222160
vt 0.804496 0.842017
vt 0.794339 0.843779
vt 0.407515 0.499717
vt 0.399238 0.505654
vt 0.861659 0.945333
vt 0.877569 0.902948
vt 0.871530 0.947837
vt 0.886494 0.954759
vt 0.870282 0.957356
vt 0.404341 0.614731
vt 0.399745 0.607714
vt 0.226073 0.991755
vt 0.219059 0.991432
vt 0.218579 0.981500
vt 0.506363 0.970945
vt 0.506474 0.931959
vt 0.524512 0.970256
vt 0.219088 0.973583
vt 0.119170 0.982557
vt 0.117089 0.972617
vt 0.863893 0.238579
vt 0.872305 0.239916
vt 0.864766 0.248380
vt 0.416494 0.978962
vt 0.425069 0.972043
vt 0.505902 0.970952
vt 0.415732 0.918981
vt 0.465561 0.950665
vt 0.818234 0.249362
vt 0.886494 0.946135
vt 0.778257 0.743443
vt 0.250975 0.734277
vt 0.268184 0.903841
vt 0.250975 0.904741
vt 0.978908 0.301894
vt 0.957711 0.467426
vt 0.961799 0.300083
vt 0.529384 0.970301
vt 0.769816 0.953102
vt 0.770699 0.970301
vt 0.976024 0.141947
vt 0.991532 0.157059
vt 0.974397 0.158580
vt 0.195515 0.747509
vt 0.246159 0.768121
vt 0.241971 0.938738
vt 0.523463 0.914133
vt 0.329687 0.722542
vt 0.466832 0.716092
vt 0.974236 0.107456
vt 0.992925 0.139172
vt 0.961278 0.490680
vt 0.974891 0.468724
vt 0.978531 0.489600
vt 0.995335 0.196127
vt 0.978458 0.160507
vt 0.995459 0.158713
vt 0.995481 0.224708
vt 0.978265 0.197574
vt 0.995483 0.197459
vt 0.991064 0.103521
vt 0.973955 0.002763
vt 0.991086 0.002482
vt 0.894239 0.249215
vt 0.877015 0.226793
vt 0.894239 0.227520
vt 0.969077 0.002872
vt 0.951895 0.244111
vt 0.951895 0.002489
vt 0.989514 0.500836
vt 0.972403 0.740034
vt 0.972403 0.499843
vt 0.401116 0.003871
vt 0.002579 0.244164
vt 0.002439 0.002446
vt 0.414232 0.005775
vt 0.810604 0.244176
vt 0.410124 0.244176
vt 0.002448 0.965440
vt 0.404988 0.948212
vt 0.405205 0.965440
vt 0.967531 0.965883
vt 0.950317 0.567972
vt 0.967525 0.568087
vt 0.247181 0.931300
vt 0.387980 0.914103
vt 0.388507 0.931300
vt 0.798274 0.962937
vt 0.936756 0.980062
vt 0.797352 0.980062
vt 0.772808 0.880010
vt 0.528339 0.897179
vt 0.529009 0.879959
vt 0.972408 0.748976
vt 0.989508 0.984835
vt 0.972408 0.985345
vt 0.534088 0.735940
vt 0.774207 0.874739
vt 0.528257 0.874739
vt 0.952736 0.490972
vt 0.814437 0.251126
vt 0.954397 0.254549
vt 0.909548 0.511320
vt 0.842229 0.942133
vt 0.797423 0.485096
vt 0.486316 0.487730
vt 0.331032 0.710883
vt 0.945727 0.003935
vt 0.872121 0.499884
vt 0.820354 0.895158
vt 0.402674 0.482375
vt 0.002462 0.251072
vt 0.862345 0.002434
vt 0.862043 0.220291
vt 0.936762 0.953467
vt 0.936149 0.959899
vt 0.459699 0.623983
vt 0.339809 0.476326
vt 0.992355 0.242966
vt 0.987140 0.299506
vt 0.970974 0.296574
vt 0.111980 0.972676
vt 0.352899 0.618418
vt 0.363007 0.668714
vt 0.351943 0.676717
vt 0.779813 0.858235
vt 0.779199 0.850874
vt 0.974048 0.242368
vt 0.004150 0.972595
vt 0.908906 0.850846
vt 0.778410 0.736648
vt 0.794905 0.733744
vt 0.409795 0.926242
vt 0.804480 0.842988
vt 0.453915 0.500667
vt 0.866087 0.900664
vt 0.860256 0.953999
vt 0.226319 0.973440
vt 0.228233 0.980264
vt 0.516587 0.920673
vt 0.523509 0.925397
vt 0.517497 0.978962
vt 0.516527 0.978962
vt 0.870096 0.229604
vt 0.872165 0.249148
vt 0.884411 0.900454
vt 0.118183 0.991840
vt 0.778257 0.844625
vt 0.268191 0.733779
vt 0.530180 0.953089
vt 0.002437 0.939729
vt 0.002437 0.773147
vt 0.060992 0.740112
vt 0.023602 0.751232
vt 0.078081 0.719100
vt 0.179061 0.721069
vt 0.229918 0.755284
vt 0.282238 0.912050
vt 0.278190 0.742047
vt 0.295741 0.730111
vt 0.345995 0.696113
vt 0.447774 0.694721
vt 0.523463 0.748509
vt 0.503347 0.729003
vt 0.991204 0.105153
vt 0.978458 0.197094
vt 0.978265 0.224920
vt 0.973955 0.104605
vt 0.877152 0.248928
vt 0.969077 0.244494
vt 0.989569 0.739132
vt 0.405261 0.244164
vt 0.810301 0.002458
vt 0.002548 0.948209
vt 0.950317 0.966642
vt 0.247474 0.914083
vt 0.937410 0.962841
vt 0.774290 0.897179
vt 0.989573 0.748417
vt 0.770472 0.733729
vt 0.814437 0.494927
vn -0.6677 0.7347 0.1197
vn -0.6175 0.0755 -0.7829
vn -0.6873 -0.6688 -0.2833
vn 0.5759 0.0896 -0.8126
vn 0.6210 0.7838 0.0022
vn 0.6909 -0.6507 -0.3151
vn -0.5279 0.8382 -0.1367
vn -0.5563 0.6084 0.5660
vn -0.5930 -0.5532 0.5851
vn 0.5943 -0.5501 0.5867
vn 0.5671 0.6053 0.5586
vn -0.5592 0.6019 0.5700
vn -0.6100 -0.5660 -0.5546
vn -0.6275 -0.5303 0.5702
vn 0.5436 -0.6407 -0.5423
vn 0.5918 0.5619 0.5780
vn 0.5254 -0.6145 0.5885
vn 0.6064 0.5290 -0.5936
vn -0.5451 0.5671 -0.6175
vn 0.9134 0.0921 -0.3965
vn 0.6592 -0.6358 -0.4015
vn 0.3445 0.2154 -0.9137
vn -0.6794 -0.7069 -0.1966
vn -0.3522 -0.6669 -0.6566
vn 0.2538 -0.5951 -0.7625
vn 0.7284 0.6501 -0.2164
vn 0.3456 0.6742 -0.6527
vn 0.1152 0.9844 0.1332
vn 0.6607 -0.7339 0.1575
vn -0.3947 0.1219 -0.9107
vn -0.3110 0.7888 -0.5301
vn -0.1021 0.7754 -0.6231
vn 0.3446 -0.7152 0.6081
vn -0.9417 -0.0296 0.3352
vn -0.7348 0.6651 -0.1330
vn -0.9368 0.0835 -0.3397
vn -0.6372 -0.6567 0.4034
vn -0.1895 -0.7482 0.6358
vn -0.3019 -0.0474 0.9522
vn -0.6968 0.5670 0.4393
vn -0.0793 0.9664 0.2446
vn 0.3404 -0.1803 0.9228
vn 0.9269 -0.0245 0.3744
vn -0.0032 0.9925 -0.1224
vn 0.3841 0.4196 0.8224
vn 0.0768 0.9560 0.2831
vn -0.0139 0.9872 0.1590
vn 0.1384 0.9878 -0.0718
vn -0.2449 0.5855 0.7728
vn -0.7383 0.6319 -0.2360
vn -0.3436 0.6673 -0.6608
vn -0.3231 0.2096 -0.9229
vn -0.2159 -0.5989 -0.7712
vn 0.3884 -0.6555 -0.6477
vn 0.7029 -0.6886 -0.1784
vn -0.1097 0.9528 0.2832
vn -0.1444 0.9806 0.1322
vn -0.6459 -0.7512 0.1362
vn -0.9035 0.0699 -0.4229
vn -0.6305 -0.6512 -0.4223
vn 0.1004 0.7799 -0.6179
vn 0.4179 0.1350 -0.8984
vn -0.3436 -0.7259 0.5959
vn 0.7210 0.6842 -0.1097
vn 0.9319 -0.0065 0.3626
vn 0.9439 0.1086 -0.3119
vn 0.6418 -0.6415 0.4202
vn 0.1930 -0.7457 0.6377
vn 0.6688 0.5832 0.4610
vn 0.2070 0.5891 0.7811
vn 0.2750 -0.0428 0.9605
vn 0.0987 0.9908 -0.0927
vn 0.0472 0.9673 0.2492
vn -0.3625 -0.1921 0.9120
vn -0.9365 -0.0495 0.3470
vn -0.7657 0.5248 0.3717
vn -0.1615 0.9841 -0.0734
vn -0.0188 0.9926 -0.1197
vn -0.4187 0.4069 0.8119
vn -0.0163 0.9867 0.1619
vn -0.6667 0.3366 0.6650
vn -0.5683 -0.5810 -0.5826
vn -0.5689 -0.5887 0.5743
vn 0.6170 -0.5841 -0.5274
vn 0.6655 0.3319 0.6685
vn 0.5400 -0.5664 0.6225
vn -0.3002 0.7542 0.5840
vn -0.7504 0.3324 -0.5713
vn -0.3317 0.5299 0.7805
vn -0.3661 0.4307 -0.8249
vn 0.3634 0.5004 -0.7858
vn -0.3286 0.5848 -0.7416
vn 0.3979 0.7722 0.4954
vn 0.7636 0.2619 -0.5903
vn 0.3886 0.4354 -0.8121
vn 0.3186 0.5655 0.7607
vn -0.3858 0.6983 0.6029
vn 0.3197 0.7515 0.5771
vn -0.4081 0.6673 -0.6230
vn 0.3306 0.6720 -0.6627
vn -0.5710 0.5722 -0.5887
vn 0.5767 -0.5879 -0.5672
vn -0.5794 -0.5825 -0.5701
vn 0.5644 0.6136 0.5522
vn -0.5924 -0.5454 0.5930
vn 0.5918 -0.5426 0.5961
vn -0.5547 0.6066 0.5695
vn 0.5863 0.5658 -0.5797
vn -0.5762 0.6053 0.5493
vn -0.5695 -0.5787 -0.5837
vn -0.6021 -0.5612 0.5679
vn 0.5717 -0.5820 -0.5783
vn 0.5591 0.5969 0.5754
vn 0.6062 -0.5529 0.5717
vn -0.5568 0.5676 -0.6064
vn 0.5815 0.5679 -0.5825
vn 0.8298 0.5425 -0.1308
vn 0.7408 0.5454 0.3922
vn -0.1213 0.9877 -0.0987
vn 0.3057 0.7983 -0.5188
usemtl Default_OBJ.001
s 1
f 1/1/1 2/2/2 3/3/3
f 4/4/4 5/5/5 6/6/6
f 4/7/4 3/8/3 2/9/2
f 5/10/5 7/11/7 1/12/1
f 8/13/8 3/3/3 9/14/9
f 7/11/7 4/15/4 2/16/2
f 8/17/8 5/10/5 1/12/1
f 10/18/10 5/5/5 11/19/11
f 10/20/10 3/8/3 6/21/6
f 10/22/10 8/23/8 9/24/9
f 12/25/12 13/26/13 14/27/14
f 15/28/15 16/29/16 17/30/17
f 15/31/15 14/32/14 13/33/13
f 18/34/18 12/35/12 16/36/16
f 17/37/17 12/38/12 14/39/14
f 18/40/18 13/41/13 19/42/19
f 20/43/20 21/44/21 22/45/22
f 23/46/23 24/47/24 25/48/25
f 26/49/26 27/50/27 28/51/28
f 20/52/20 29/53/29 21/54/21
f 30/55/30 31/56/31 32/57/32
f 25/48/25 29/58/29 33/59/33
f 34/60/34 35/61/35 36/62/36
f 36/62/36 35/61/35 31/63/31
f 37/64/37 23/46/23 25/48/25
f 33/59/33 38/65/38 25/48/25
f 34/66/34 37/67/37 39/68/39
f 38/65/38 37/64/37 25/48/25
f 35/69/35 40/70/40 41/71/41
f 42/72/42 38/73/38 33/74/33
f 42/75/42 33/76/33 43/77/43
f 44/78/44 27/50/27 32/79/32
f 41/71/41 45/80/45 46/81/46
f 47/82/47 48/83/48 44/78/44
f 47/82/47 46/81/46 28/51/28
f 47/82/47 41/71/41 46/81/46
f 44/78/44 41/71/41 47/82/47
f 26/84/26 43/77/43 20/52/20
f 23/85/23 34/60/34 36/62/36
f 42/72/42 49/86/49 39/68/39
f 25/87/25 30/55/30 22/45/22
f 50/88/50 51/89/51 52/90/52
f 53/91/53 54/92/54 55/93/55
f 56/94/56 57/95/57 50/96/50
f 58/97/58 59/98/59 60/99/60
f 61/100/61 62/101/62 52/90/52
f 58/102/58 53/91/53 63/103/63
f 64/104/64 65/105/65 66/106/66
f 66/106/66 54/107/54 62/108/62
f 53/91/53 55/93/55 67/109/67
f 53/91/53 68/110/68 63/103/63
f 69/111/69 70/112/70 71/113/71
f 53/91/53 67/109/67 68/110/68
f 72/114/72 73/115/73 64/116/64
f 68/117/68 74/118/74 63/119/63
f 75/120/75 74/121/74 76/122/76
f 51/123/51 77/124/77 78/125/78
f 79/126/79 73/115/73 56/94/56
f 77/124/77 80/127/80 78/125/78
f 57/95/57 56/94/56 80/127/80
f 56/94/56 73/115/73 80/127/80
f 73/115/73 78/125/78 80/127/80
f 75/120/75 50/128/50 59/98/59
f 65/105/65 55/129/55 66/106/66
f 70/112/70 74/118/74 71/113/71
f 62/101/62 53/130/53 52/90/52
f 81/131/81 82/132/82 83/133/83
f 84/134/84 85/135/85 86/136/86
f 84/137/84 83/138/83 82/139/82
f 87/140/87 88/141/88 81/142/81
f 89/143/89 81/144/81 83/145/83
f 84/146/84 90/147/90 91/148/91
f 89/149/89 92/150/92 87/140/87
f 93/151/93 94/152/94 95/153/95
f 93/154/93 91/155/91 96/156/96
f 97/157/97 90/158/90 89/159/89
f 98/160/98 99/161/99 97/162/97
f 96/163/96 100/164/100 98/165/98
f 101/166/101 102/167/102 103/168/103
f 104/169/104 105/170/105 106/171/106
f 106/172/106 103/173/103 102/174/102
f 104/175/104 101/176/101 107/177/107
f 105/178/105 101/179/101 103/180/103
f 104/181/104 102/182/102 108/183/108
f 109/184/109 110/185/110 111/186/111
f 112/187/112 113/188/113 114/189/114
f 112/190/112 111/191/111 110/192/110
f 113/193/113 115/194/115 109/195/109
f 113/196/113 111/197/111 114/198/114
f 116/199/116 110/200/110 115/201/115
f 1/1/1 7/202/7 2/2/2
f 4/4/4 117/203/117 5/5/5
f 4/7/4 6/21/6 3/8/3
f 5/10/5 117/204/117 7/11/7
f 8/13/8 1/1/1 3/3/3
f 7/11/7 117/204/117 4/15/4
f 8/17/8 11/205/11 5/10/5
f 10/18/10 6/6/6 5/5/5
f 10/20/10 9/206/9 3/8/3
f 10/22/10 11/207/11 8/23/8
f 12/25/12 19/208/19 13/26/13
f 15/28/15 18/209/18 16/29/16
f 15/31/15 17/210/17 14/32/14
f 18/34/18 19/211/19 12/35/12
f 17/37/17 16/212/16 12/38/12
f 18/40/18 15/213/15 13/41/13
f 25/87/25 22/45/22 21/44/21
f 22/45/22 27/214/27 26/215/26
f 20/43/20 22/45/22 26/215/26
f 27/50/27 48/83/48 28/51/28
f 28/51/28 46/81/46 26/49/26
f 46/81/46 45/80/45 118/216/118
f 26/49/26 46/81/46 118/216/118
f 20/52/20 43/77/43 29/53/29
f 27/214/27 22/45/22 32/57/32
f 22/45/22 30/55/30 32/57/32
f 25/48/25 21/217/21 29/58/29
f 34/60/34 40/218/40 35/61/35
f 31/63/31 30/219/30 36/62/36
f 30/219/30 24/220/24 36/62/36
f 24/220/24 23/85/23 36/62/36
f 37/67/37 38/73/38 39/68/39
f 39/68/39 49/86/49 40/221/40
f 40/221/40 34/66/34 39/68/39
f 40/70/40 49/222/49 41/71/41
f 41/71/41 119/223/119 35/69/35
f 119/223/119 32/79/32 35/69/35
f 32/79/32 31/224/31 35/69/35
f 42/72/42 39/68/39 38/73/38
f 29/53/29 43/77/43 33/76/33
f 43/77/43 118/225/118 42/75/42
f 118/225/118 45/226/45 42/75/42
f 32/79/32 119/223/119 44/78/44
f 44/78/44 48/83/48 27/50/27
f 41/71/41 49/222/49 45/80/45
f 47/82/47 28/51/28 48/83/48
f 44/78/44 119/223/119 41/71/41
f 26/84/26 118/225/118 43/77/43
f 23/85/23 37/227/37 34/60/34
f 42/72/42 45/228/45 49/86/49
f 25/87/25 24/229/24 30/55/30
f 52/90/52 53/130/53 60/230/60
f 60/230/60 59/231/59 52/90/52
f 59/231/59 50/88/50 52/90/52
f 77/124/77 51/123/51 57/95/57
f 51/123/51 50/96/50 57/95/57
f 50/96/50 76/232/76 56/94/56
f 76/232/76 79/126/79 56/94/56
f 58/97/58 75/120/75 59/98/59
f 52/90/52 51/89/51 61/100/61
f 61/100/61 120/233/120 62/101/62
f 58/102/58 60/234/60 53/91/53
f 64/104/64 69/235/69 65/105/65
f 62/108/62 120/236/120 66/106/66
f 120/236/120 64/104/64 66/106/66
f 66/106/66 55/129/55 54/107/54
f 68/117/68 67/237/67 71/113/71
f 67/237/67 65/238/65 71/113/71
f 65/238/65 69/111/69 71/113/71
f 70/239/70 69/240/69 73/115/73
f 69/240/69 64/116/64 73/115/73
f 64/116/64 120/241/120 61/242/61
f 61/242/61 72/114/72 64/116/64
f 68/117/68 71/113/71 74/118/74
f 75/120/75 58/97/58 63/243/63
f 63/243/63 74/121/74 75/120/75
f 74/121/74 79/244/79 76/122/76
f 72/114/72 61/242/61 78/125/78
f 61/242/61 51/123/51 78/125/78
f 79/126/79 70/239/70 73/115/73
f 77/124/77 57/95/57 80/127/80
f 73/115/73 72/114/72 78/125/78
f 75/120/75 76/122/76 50/128/50
f 65/105/65 67/245/67 55/129/55
f 70/112/70 79/246/79 74/118/74
f 62/101/62 54/247/54 53/130/53
f 81/131/81 88/248/88 82/132/82
f 84/134/84 94/152/94 85/135/85
f 84/137/84 86/249/86 83/138/83
f 87/140/87 92/150/92 88/141/88
f 83/145/83 86/250/86 89/143/89
f 86/250/86 85/251/85 96/252/96
f 85/251/85 93/253/93 96/252/96
f 96/252/96 98/254/98 89/143/89
f 98/254/98 97/255/97 89/143/89
f 89/143/89 87/256/87 81/144/81
f 86/250/86 96/252/96 89/143/89
f 82/257/82 88/258/88 90/147/90
f 88/258/88 92/259/92 90/147/90
f 90/147/90 99/260/99 100/261/100
f 94/262/94 84/146/84 91/148/91
f 84/146/84 82/257/82 90/147/90
f 91/148/91 95/263/95 94/262/94
f 90/147/90 100/261/100 91/148/91
f 89/149/89 90/264/90 92/150/92
f 93/151/93 85/135/85 94/152/94
f 93/154/93 95/265/95 91/155/91
f 97/157/97 99/266/99 90/158/90
f 98/160/98 100/267/100 99/161/99
f 96/163/96 91/268/91 100/164/100
f 101/166/101 108/269/108 102/167/102
f 104/169/104 107/270/107 105/170/105
f 106/172/106 105/271/105 103/173/103
f 104/175/104 108/272/108 101/176/101
f 105/178/105 107/273/107 101/179/101
f 104/181/104 106/274/106 102/182/102
f 109/184/109 115/275/115 110/185/110
f 112/187/112 116/276/116 113/188/113
f 112/190/112 114/277/114 111/191/111
f 113/193/113 116/278/116 115/194/115
f 113/196/113 109/279/109 111/197/111
f 116/199/116 112/280/112 110/200/110
