# Blender v2.83.4 OBJ File: 'CasaFinal.blend'
# www.blender.org
o piso_afuera_1_Slab
v 5.901865 0.000000 -3.997934
v 5.901865 0.000000 -0.634280
v 10.933067 0.000000 -0.634280
v 10.933068 0.000000 -3.997934
vt 0.461258 0.682931
vt 0.916698 0.001705
vt 0.916698 0.682931
vt 0.461259 0.001705
vn 0.0000 1.0000 0.0000
s 1
f 2/1/1 4/2/1 1/3/1
f 2/1/1 3/4/1 4/2/1
o piso_afuera_2_Slab.001
v 3.752805 -0.008575 -0.537296
v 3.752805 -0.008575 0.507987
v 4.680311 -0.008575 0.507987
v 4.680311 -0.008575 -0.537296
v 3.752805 0.060988 -0.537296
v 3.752805 0.060988 0.507987
v 4.680311 0.060988 0.507987
v 4.680311 0.060988 -0.537296
vt 0.563262 0.002641
vt 0.002645 0.494765
vt 0.002645 0.002641
vt 0.563262 0.997351
vt 0.002645 0.505227
vt 0.563262 0.505227
vt 0.568552 0.002645
vt 0.605461 0.563262
vt 0.568552 0.563262
vt 0.610752 0.002645
vt 0.647661 0.563262
vt 0.610752 0.563262
vt 0.689860 0.500095
vt 0.652950 0.002645
vt 0.689859 0.002645
vt 0.732062 0.500095
vt 0.695152 0.002645
vt 0.732062 0.002645
vt 0.563262 0.494765
vt 0.002645 0.997351
vt 0.605461 0.002645
vt 0.647661 0.002645
vt 0.652950 0.500095
vt 0.695153 0.500095
vn 0.0000 -1.0000 0.0000
vn 0.0000 1.0000 0.0000
vn 1.0000 0.0000 0.0000
vn -1.0000 0.0000 0.0000
vn 0.0000 0.0000 -1.0000
vn -0.0000 0.0000 1.0000
s 1
f 5/5/2 7/6/2 6/7/2
f 9/8/3 11/9/3 12/10/3
f 8/11/4 11/12/4 7/13/4
f 6/14/5 9/15/5 5/16/5
f 5/17/6 12/18/6 8/19/6
f 7/20/7 10/21/7 6/22/7
f 5/5/2 8/23/2 7/6/2
f 9/8/3 10/24/3 11/9/3
f 8/11/4 12/25/4 11/12/4
f 6/14/5 10/26/5 9/15/5
f 5/17/6 9/27/6 12/18/6
f 7/20/7 11/28/7 10/21/7
