# Blender v2.83.4 OBJ File: 'CasaFinal.blend'
# www.blender.org
o jardin_1_Cube.002_Cube.001
v -6.409393 -0.017999 5.032587
v -9.166232 -0.017999 5.032573
v -9.166229 -0.017999 -5.210814
v -6.409389 -0.017999 -5.210811
vt 0.997510 0.002490
vt 0.002491 0.270283
vt 0.002490 0.002490
vt 0.997510 0.270283
vn -0.0000 1.0000 0.0000
s 1
f 4/1/1 2/2/1 1/3/1
f 4/1/1 3/4/1 2/2/1
o jardin_2_Cube.002_Cube.003
v 9.716029 0.000685 5.036350
v 5.906794 0.000684 5.036336
v 5.906796 0.000684 -0.625080
v 9.716032 0.000685 -0.625077
vt 0.001704 0.001703
vt 0.457852 0.679647
vt 0.001704 0.679648
vt 0.457852 0.001703
vn -0.0000 1.0000 0.0000
s 1
f 8/5/2 6/6/2 5/7/2
f 8/5/2 7/8/2 6/6/2
