# Blender v2.83.4 OBJ File: 'CasaFinal.blend'
# www.blender.org
o mesa_1
v -0.847331 0.621673 1.078089
v 0.176325 0.621673 1.078089
v 0.176325 0.643287 1.078089
v 0.161889 0.657723 1.092525
v -0.832895 0.657723 1.092525
v -0.847331 0.643287 1.078089
v -0.847331 0.621673 2.803962
v -0.847331 0.643287 2.803962
v 0.176325 0.643287 2.803962
v 0.161889 0.657723 2.789526
v -0.832895 0.657723 2.789526
v 0.176325 0.621673 2.803962
v -0.734795 0.000178 2.667789
v -0.727911 0.000178 2.684408
v -0.739339 0.643952 2.695837
v -0.750957 0.643952 2.667789
v -0.711291 0.000178 2.644286
v -0.727911 0.000178 2.651170
v -0.739339 0.643952 2.639742
v -0.711291 0.643952 2.628124
v -0.694672 0.000178 2.651170
v -0.683244 0.643952 2.639742
v -0.694672 0.000178 2.684408
v -0.687788 0.000178 2.667789
v -0.671626 0.643952 2.667789
v -0.683244 0.643952 2.695837
v -0.711291 0.000178 2.691292
v -0.711291 0.643952 2.707454
v -0.711291 0.000178 2.667789
v 0.063789 0.000178 2.667789
v 0.079951 0.643952 2.667789
v 0.068333 0.643952 2.695837
v 0.056905 0.000178 2.684408
v 0.040285 0.000178 2.644286
v 0.040285 0.643952 2.628124
v 0.068333 0.643952 2.639742
v 0.056905 0.000178 2.651170
v 0.023666 0.000178 2.651170
v 0.012238 0.643952 2.639742
v 0.023666 0.000178 2.684408
v 0.012238 0.643952 2.695837
v 0.000620 0.643952 2.667789
v 0.016782 0.000178 2.667789
v 0.040285 0.643952 2.707454
v 0.040285 0.000178 2.691292
v 0.040285 0.000178 2.667789
v -0.734795 0.000179 1.214910
v -0.750957 0.643952 1.214910
v -0.739339 0.643952 1.186862
v -0.727911 0.000179 1.198291
v -0.711291 0.000179 1.238413
v -0.711291 0.643952 1.254575
v -0.739339 0.643952 1.242958
v -0.727911 0.000179 1.231529
v -0.694672 0.000179 1.231529
v -0.683244 0.643952 1.242958
v -0.694672 0.000179 1.198291
v -0.683244 0.643952 1.186862
v -0.671626 0.643952 1.214910
v -0.687788 0.000179 1.214910
v -0.711291 0.643952 1.175245
v -0.711291 0.000179 1.191407
v -0.711291 0.000179 1.214910
v 0.063789 0.000179 1.214910
v 0.056905 0.000179 1.198291
v 0.068333 0.643952 1.186862
v 0.079951 0.643952 1.214910
v 0.040285 0.000179 1.238413
v 0.056905 0.000179 1.231529
v 0.068333 0.643952 1.242958
v 0.040285 0.643952 1.254575
v 0.023666 0.000179 1.231529
v 0.012238 0.643952 1.242958
v 0.023666 0.000179 1.198291
v 0.016782 0.000179 1.214910
v 0.000620 0.643952 1.214910
v 0.012238 0.643952 1.186862
v 0.040285 0.000179 1.191407
v 0.040285 0.643952 1.175245
v 0.040285 0.000179 1.214910
vt 0.807247 0.002747
vt 0.817395 0.801763
vt 0.807248 0.801763
vt 0.002747 0.483449
vt 0.795079 0.476670
vt 0.801763 0.483449
vt 0.822885 0.002747
vt 0.833032 0.801763
vt 0.822885 0.801763
vt 0.476653 0.979273
vt 0.002738 0.989421
vt 0.002738 0.979274
vt 0.002746 0.002743
vt 0.795079 0.009522
vt 0.009430 0.009522
vt 0.801763 0.002743
vt 0.009430 0.476670
vt 0.956054 0.979273
vt 0.482139 0.989421
vt 0.482139 0.979274
vt 0.965384 0.002763
vt 0.957580 0.300969
vt 0.957580 0.002833
vt 0.955266 0.608168
vt 0.963070 0.309961
vt 0.963070 0.608097
vt 0.976241 0.310080
vt 0.970875 0.608168
vt 0.851710 0.002844
vt 0.838539 0.300862
vt 0.843905 0.002774
vt 0.909909 0.608097
vt 0.923080 0.310080
vt 0.917714 0.608168
vt 0.944409 0.300850
vt 0.949775 0.002763
vt 0.859514 0.002774
vt 0.851710 0.300981
vt 0.902105 0.608168
vt 0.909909 0.309961
vt 0.991350 0.577233
vt 0.983022 0.577233
vt 0.987186 0.567036
vt 0.977133 0.571260
vt 0.977133 0.562813
vt 0.983022 0.556839
vt 0.991350 0.556839
vt 0.997239 0.562813
vt 0.997239 0.571260
vt 0.984041 0.002743
vt 0.991845 0.300950
vt 0.984041 0.300879
vt 0.904640 0.300977
vt 0.896836 0.002771
vt 0.904640 0.002841
vt 0.917812 0.300858
vt 0.912445 0.002771
vt 0.917939 0.002858
vt 0.931110 0.300875
vt 0.923305 0.300945
vt 0.939249 0.611824
vt 0.952420 0.909841
vt 0.944616 0.909912
vt 0.970869 0.002862
vt 0.976236 0.300950
vt 0.931110 0.002739
vt 0.938914 0.300945
vt 0.952420 0.611705
vt 0.960224 0.909912
vt 0.984649 0.639135
vt 0.980485 0.649332
vt 0.976321 0.639135
vt 0.970433 0.645108
vt 0.970433 0.653555
vt 0.976322 0.659528
vt 0.984650 0.659528
vt 0.990538 0.653555
vt 0.990538 0.645108
vt 0.888834 0.611699
vt 0.896638 0.909905
vt 0.888834 0.909835
vt 0.851706 0.608192
vt 0.843901 0.309985
vt 0.851706 0.310056
vt 0.864877 0.608073
vt 0.859510 0.309985
vt 0.928176 0.926271
vt 0.915005 0.628253
vt 0.922809 0.628183
vt 0.949544 0.608084
vt 0.936373 0.310067
vt 0.944177 0.309996
vt 0.875663 0.611818
vt 0.881030 0.909905
vt 0.915005 0.926390
vt 0.907200 0.628183
vt 0.936373 0.608203
vt 0.928568 0.309996
vt 0.976815 0.611697
vt 0.980979 0.621894
vt 0.970926 0.617670
vt 0.970926 0.626118
vt 0.976815 0.632091
vt 0.985143 0.632091
vt 0.991032 0.626118
vt 0.991032 0.617670
vt 0.985143 0.611697
vt 0.870375 0.300953
vt 0.878179 0.002746
vt 0.878179 0.300883
vt 0.857240 0.628180
vt 0.849436 0.926386
vt 0.849436 0.628250
vt 0.836265 0.926267
vt 0.841632 0.628180
vt 0.878175 0.608099
vt 0.891346 0.310081
vt 0.885980 0.608169
vt 0.977495 0.688601
vt 0.964324 0.986618
vt 0.969690 0.688530
vt 0.891350 0.002865
vt 0.885983 0.300953
vt 0.870371 0.608169
vt 0.878175 0.309962
vt 0.985299 0.688530
vt 0.977495 0.986737
vt 0.990856 0.604668
vt 0.982528 0.604668
vt 0.986692 0.594471
vt 0.976639 0.598695
vt 0.976639 0.590247
vt 0.982528 0.584274
vt 0.990856 0.584274
vt 0.996745 0.590247
vt 0.996745 0.598695
vt 0.801763 0.491009
vt 0.002746 0.971715
vt 0.002746 0.491009
vt 0.817394 0.002747
vt 0.833032 0.002747
vt 0.476653 0.989421
vt 0.956054 0.989421
vt 0.970751 0.300850
vt 0.949899 0.310080
vt 0.864881 0.300862
vt 0.896738 0.310080
vt 0.997212 0.002862
vt 0.891470 0.300858
vt 0.944281 0.002858
vt 0.965591 0.611824
vt 0.902005 0.611818
vt 0.838534 0.608073
vt 0.901834 0.926271
vt 0.923202 0.608084
vt 0.865008 0.002865
vt 0.862607 0.926267
vt 0.865004 0.310081
vt 0.990666 0.986618
vt 0.801763 0.971715
vn 0.5773 -0.5774 -0.5774
vn 0.6507 0.3914 0.6507
vn 0.5774 -0.5774 0.5773
vn 0.6507 0.3914 -0.6507
vn 0.3002 0.9054 0.3002
vn -0.5773 -0.5774 0.5774
vn -0.6507 0.3914 -0.6507
vn -0.5774 -0.5774 -0.5774
vn -0.3002 0.9054 0.3002
vn -0.3002 0.9054 -0.3002
vn -0.6507 0.3914 0.6507
vn 0.3002 0.9054 -0.3002
vn -0.5435 -0.6397 0.5435
vn -0.9997 -0.0251 0.0000
vn -0.7687 -0.6397 -0.0000
vn -0.5435 -0.6397 -0.5435
vn -0.0000 -0.0251 -0.9997
vn 0.0000 -0.6397 -0.7687
vn 0.7069 -0.0251 -0.7069
vn 0.5435 -0.6397 -0.5435
vn 0.7687 -0.6397 -0.0000
vn 0.7069 -0.0251 0.7069
vn 0.5435 -0.6397 0.5435
vn -0.0000 -0.6397 0.7687
vn -0.7069 -0.0251 0.7069
vn -0.7069 -0.0251 -0.7069
vn 0.9997 -0.0251 -0.0000
vn -0.0000 -0.0251 0.9997
vn 0.0000 -1.0000 0.0000
s 1
f 2/1/1 9/2/2 12/3/3
f 3/4/4 10/5/5 9/6/2
f 7/7/6 6/8/7 1/9/8
f 1/10/8 3/11/4 2/12/1
f 6/13/7 11/14/9 5/15/10
f 9/6/2 11/14/9 8/16/11
f 3/4/4 5/15/10 4/17/12
f 12/18/3 8/19/11 7/20/6
f 14/21/13 16/22/14 13/23/15
f 18/24/16 20/25/17 17/26/18
f 17/26/18 22/27/19 21/28/20
f 24/29/21 26/30/22 23/31/23
f 27/32/24 15/33/25 14/34/13
f 13/23/15 19/35/26 18/36/16
f 21/37/20 25/38/27 24/29/21
f 23/39/23 28/40/28 27/32/24
f 14/41/13 13/42/15 29/43/29
f 18/44/16 17/45/18 29/43/29
f 17/45/18 21/46/20 29/43/29
f 24/47/21 23/48/23 29/43/29
f 27/49/24 14/41/13 29/43/29
f 13/42/15 18/44/16 29/43/29
f 21/46/20 24/47/21 29/43/29
f 23/48/23 27/49/24 29/43/29
f 31/50/27 33/51/23 30/52/21
f 35/53/17 37/54/20 34/55/18
f 39/56/26 34/55/18 38/57/16
f 41/58/25 43/59/15 40/60/13
f 32/61/22 45/62/24 33/63/23
f 36/64/19 30/52/21 37/65/20
f 42/66/14 38/67/16 43/59/15
f 44/68/28 40/69/13 45/62/24
f 33/70/23 46/71/29 30/72/21
f 37/73/20 46/71/29 34/74/18
f 34/74/18 46/71/29 38/75/16
f 43/76/15 46/71/29 40/77/13
f 45/78/24 46/71/29 33/70/23
f 30/72/21 46/71/29 37/73/20
f 38/75/16 46/71/29 43/76/15
f 40/77/13 46/71/29 45/78/24
f 48/79/14 50/80/16 47/81/15
f 52/82/28 54/83/13 51/84/24
f 56/85/22 51/84/24 55/86/23
f 58/87/19 60/88/21 57/89/20
f 49/90/26 62/91/18 50/92/16
f 53/93/25 47/81/15 54/94/13
f 59/95/27 55/96/23 60/88/21
f 61/97/17 57/98/20 62/91/18
f 50/99/16 63/100/29 47/101/15
f 54/102/13 63/100/29 51/103/24
f 51/103/24 63/100/29 55/104/23
f 60/105/21 63/100/29 57/106/20
f 62/107/18 63/100/29 50/99/16
f 47/101/15 63/100/29 54/102/13
f 55/104/23 63/100/29 60/105/21
f 57/106/20 63/100/29 62/107/18
f 65/108/20 67/109/27 64/110/21
f 69/111/23 71/112/28 68/113/24
f 68/113/24 73/114/25 72/115/13
f 75/116/15 77/117/26 74/118/16
f 78/119/18 66/120/19 65/121/20
f 64/110/21 70/122/22 69/123/23
f 72/124/13 76/125/14 75/116/15
f 74/126/16 79/127/17 78/119/18
f 65/128/20 64/129/21 80/130/29
f 69/131/23 68/132/24 80/130/29
f 68/132/24 72/133/13 80/130/29
f 75/134/15 74/135/16 80/130/29
f 78/136/18 65/128/20 80/130/29
f 64/129/21 69/131/23 80/130/29
f 72/133/13 75/134/15 80/130/29
f 74/135/16 78/136/18 80/130/29
f 10/5/5 5/15/10 11/14/9
f 1/137/8 12/138/3 7/139/6
f 2/1/1 3/140/4 9/2/2
f 3/4/4 4/17/12 10/5/5
f 7/7/6 8/141/11 6/8/7
f 1/10/8 6/142/7 3/11/4
f 6/13/7 8/16/11 11/14/9
f 9/6/2 10/5/5 11/14/9
f 3/4/4 6/13/7 5/15/10
f 12/18/3 9/143/2 8/19/11
f 14/21/13 15/144/25 16/22/14
f 18/24/16 19/145/26 20/25/17
f 17/26/18 20/25/17 22/27/19
f 24/29/21 25/38/27 26/30/22
f 27/32/24 28/40/28 15/33/25
f 13/23/15 16/22/14 19/35/26
f 21/37/20 22/146/19 25/38/27
f 23/39/23 26/147/22 28/40/28
f 31/50/27 32/148/22 33/51/23
f 35/53/17 36/149/19 37/54/20
f 39/56/26 35/53/17 34/55/18
f 41/58/25 42/66/14 43/59/15
f 32/61/22 44/68/28 45/62/24
f 36/64/19 31/50/27 30/52/21
f 42/66/14 39/150/26 38/67/16
f 44/68/28 41/151/25 40/69/13
f 48/79/14 49/152/26 50/80/16
f 52/82/28 53/153/25 54/83/13
f 56/85/22 52/82/28 51/84/24
f 58/87/19 59/95/27 60/88/21
f 49/90/26 61/97/17 62/91/18
f 53/93/25 48/79/14 47/81/15
f 59/95/27 56/154/22 55/96/23
f 61/97/17 58/155/19 57/98/20
f 65/108/20 66/156/19 67/109/27
f 69/111/23 70/157/22 71/112/28
f 68/113/24 71/112/28 73/114/25
f 75/116/15 76/125/14 77/117/26
f 78/119/18 79/127/17 66/120/19
f 64/110/21 67/109/27 70/122/22
f 72/124/13 73/158/25 76/125/14
f 74/126/16 77/159/26 79/127/17
f 10/5/5 4/17/12 5/15/10
f 1/137/8 2/160/1 12/138/3
